<svg width="26" height="26" viewBox="0 0 26 26" fill="none" xmlns="http://www.w3.org/2000/svg">
<path d="M9.56244 25.5L9.06244 21.5C8.79161 21.3958 8.5364 21.2708 8.29681 21.125C8.05723 20.9792 7.82286 20.8229 7.59369 20.6562L3.87494 22.2188L0.437439 16.2812L3.65619 13.8438C3.63536 13.6979 3.62494 13.5573 3.62494 13.4219V12.5781C3.62494 12.4427 3.63536 12.3021 3.65619 12.1562L0.437439 9.71875L3.87494 3.78125L7.59369 5.34375C7.82286 5.17708 8.06244 5.02083 8.31244 4.875C8.56244 4.72917 8.81244 4.60417 9.06244 4.5L9.56244 0.5H16.4374L16.9374 4.5C17.2083 4.60417 17.4635 4.72917 17.7031 4.875C17.9426 5.02083 18.177 5.17708 18.4062 5.34375L22.1249 3.78125L25.5624 9.71875L22.3437 12.1562C22.3645 12.3021 22.3749 12.4427 22.3749 12.5781V13.4219C22.3749 13.5573 22.3541 13.6979 22.3124 13.8438L25.5312 16.2812L22.0937 22.2188L18.4062 20.6562C18.177 20.8229 17.9374 20.9792 17.6874 21.125C17.4374 21.2708 17.1874 21.3958 16.9374 21.5L16.4374 25.5H9.56244ZM11.7499 23H14.2187L14.6562 19.6875C15.302 19.5208 15.901 19.276 16.4531 18.9531C17.0051 18.6302 17.5104 18.2396 17.9687 17.7812L21.0624 19.0625L22.2812 16.9375L19.5937 14.9063C19.6979 14.6146 19.7708 14.3073 19.8124 13.9844C19.8541 13.6615 19.8749 13.3333 19.8749 13C19.8749 12.6667 19.8541 12.3385 19.8124 12.0156C19.7708 11.6927 19.6979 11.3854 19.5937 11.0938L22.2812 9.0625L21.0624 6.9375L17.9687 8.25C17.5104 7.77083 17.0051 7.36979 16.4531 7.04688C15.901 6.72396 15.302 6.47917 14.6562 6.3125L14.2499 3H11.7812L11.3437 6.3125C10.6979 6.47917 10.0989 6.72396 9.54681 7.04688C8.99473 7.36979 8.48952 7.76042 8.03119 8.21875L4.93744 6.9375L3.71869 9.0625L6.40619 11.0625C6.30202 11.375 6.22911 11.6875 6.18744 12C6.14577 12.3125 6.12494 12.6458 6.12494 13C6.12494 13.3333 6.14577 13.6563 6.18744 13.9688C6.22911 14.2813 6.30202 14.5938 6.40619 14.9063L3.71869 16.9375L4.93744 19.0625L8.03119 17.75C8.48952 18.2292 8.99473 18.6302 9.54681 18.9531C10.0989 19.276 10.6979 19.5208 11.3437 19.6875L11.7499 23ZM13.0624 17.375C14.2708 17.375 15.302 16.9479 16.1562 16.0938C17.0104 15.2396 17.4374 14.2083 17.4374 13C17.4374 11.7917 17.0104 10.7604 16.1562 9.90625C15.302 9.05208 14.2708 8.625 13.0624 8.625C11.8333 8.625 10.7968 9.05208 9.95306 9.90625C9.10931 10.7604 8.68744 11.7917 8.68744 13C8.68744 14.2083 9.10931 15.2396 9.95306 16.0938C10.7968 16.9479 11.8333 17.375 13.0624 17.375Z" fill="#1C1B1F"/>
</svg>
