<svg width="19" height="12" viewBox="0 0 19 12" fill="none" xmlns="http://www.w3.org/2000/svg">
<path fill-rule="evenodd" clip-rule="evenodd" d="M1.46429 8.92857C1.81949 8.92857 2.16014 9.06968 2.4113 9.32084C2.66247 9.57201 2.80357 9.91266 2.80357 10.2679C2.80357 10.6231 2.66247 10.9637 2.4113 11.2149C2.16014 11.466 1.81949 11.6071 1.46429 11.6071C1.10908 11.6071 0.768432 11.466 0.517268 11.2149C0.266103 10.9637 0.125 10.6231 0.125 10.2679C0.125 9.91266 0.266103 9.57201 0.517268 9.32084C0.768432 9.06968 1.10908 8.92857 1.46429 8.92857ZM17.5348 9.375C18.0286 9.375 18.4286 9.77143 18.4286 10.2679C18.4286 10.7612 18.0312 11.1607 17.5348 11.1607H5.03661C4.91921 11.1611 4.80291 11.1382 4.69437 11.0935C4.58584 11.0488 4.48721 10.983 4.40416 10.9C4.32111 10.8171 4.25527 10.7185 4.21043 10.61C4.16558 10.5015 4.14262 10.3853 4.14286 10.2679C4.14286 9.77455 4.54018 9.375 5.03661 9.375H17.5348ZM1.46429 4.46429C1.81949 4.46429 2.16014 4.60539 2.4113 4.85655C2.66247 5.10772 2.80357 5.44837 2.80357 5.80357C2.80357 6.15877 2.66247 6.49943 2.4113 6.75059C2.16014 7.00175 1.81949 7.14286 1.46429 7.14286C1.10908 7.14286 0.768432 7.00175 0.517268 6.75059C0.266103 6.49943 0.125 6.15877 0.125 5.80357C0.125 5.44837 0.266103 5.10772 0.517268 4.85655C0.768432 4.60539 1.10908 4.46429 1.46429 4.46429ZM17.5348 4.91071C18.0286 4.91071 18.4286 5.30714 18.4286 5.80357C18.4286 6.29688 18.0312 6.69643 17.5348 6.69643H5.03661C4.91921 6.69678 4.80291 6.67393 4.69437 6.6292C4.58584 6.58447 4.48721 6.51873 4.40416 6.43576C4.32111 6.35279 4.25527 6.25423 4.21043 6.14574C4.16558 6.03725 4.14262 5.92096 4.14286 5.80357C4.14286 5.31027 4.54018 4.91071 5.03661 4.91071H17.5348ZM1.46429 0C1.81949 0 2.16014 0.141103 2.4113 0.392268C2.66247 0.643432 2.80357 0.984085 2.80357 1.33929C2.80357 1.69449 2.66247 2.03514 2.4113 2.2863C2.16014 2.53747 1.81949 2.67857 1.46429 2.67857C1.10908 2.67857 0.768432 2.53747 0.517268 2.2863C0.266103 2.03514 0.125 1.69449 0.125 1.33929C0.125 0.984085 0.266103 0.643432 0.517268 0.392268C0.768432 0.141103 1.10908 0 1.46429 0ZM17.5348 0.446429C18.0286 0.446429 18.4286 0.842857 18.4286 1.33929C18.4286 1.83259 18.0312 2.23214 17.5348 2.23214H5.03661C4.91921 2.2325 4.80291 2.20965 4.69437 2.16491C4.58584 2.12018 4.48721 2.05444 4.40416 1.97147C4.32111 1.8885 4.25527 1.78994 4.21043 1.68145C4.16558 1.57296 4.14262 1.45668 4.14286 1.33929C4.14286 0.845982 4.54018 0.446429 5.03661 0.446429H17.5348Z" fill="black"/>
</svg>
